<svg width="41" height="41" viewBox="0 0 41 41" fill="none" xmlns="http://www.w3.org/2000/svg">
<path d="M33.3125 11.8516V1.28125C33.3125 1.11135 33.245 0.9484 33.1249 0.82826C33.0047 0.708119 32.8418 0.640625 32.6719 0.640625C32.502 0.640625 32.339 0.708119 32.2189 0.82826C32.0987 0.9484 32.0312 1.11135 32.0312 1.28125V11.8516C32.0297 12.448 31.8901 13.036 31.6234 13.5695C31.3566 14.103 30.97 14.5675 30.4937 14.9266L29.725 15.5031C29.6396 15.5668 29.5715 15.6508 29.5268 15.7474C29.482 15.8441 29.4621 15.9503 29.4688 16.0566L30.6968 35.0928C30.7314 35.622 30.7487 36.1633 30.7487 36.7008V37.1562C30.7487 37.666 30.5462 38.1548 30.1858 38.5152C29.8254 38.8756 29.3366 39.0781 28.8268 39.0781C28.3171 39.0781 27.8283 38.8756 27.4679 38.5152C27.1075 38.1548 26.905 37.666 26.905 37.1562V36.7008C26.905 36.1633 26.9223 35.622 26.9569 35.0922L28.1875 16.0566C28.1942 15.9503 28.1742 15.8441 28.1295 15.7474C28.0847 15.6508 28.0166 15.5668 27.9312 15.5031L27.1625 14.9266C26.6863 14.5675 26.2996 14.103 26.0329 13.5695C25.7661 13.036 25.6265 12.448 25.625 11.8516V1.28125C25.625 1.11135 25.5575 0.9484 25.4374 0.82826C25.3172 0.708119 25.1543 0.640625 24.9844 0.640625C24.8145 0.640625 24.6515 0.708119 24.5314 0.82826C24.4112 0.9484 24.3438 1.11135 24.3438 1.28125V11.8516C24.3457 12.6469 24.5318 13.4309 24.8874 14.1422C25.2431 14.8536 25.7587 15.4728 26.3938 15.9516L26.8851 16.3206L25.6795 35.0095C25.6429 35.5669 25.625 36.1357 25.625 36.7008V37.1562C25.625 38.0058 25.9625 38.8205 26.5632 39.4212C27.1639 40.0219 27.9786 40.3594 28.8281 40.3594C29.6776 40.3594 30.4924 40.0219 31.0931 39.4212C31.6938 38.8205 32.0312 38.0058 32.0312 37.1562V36.7008C32.0312 36.1357 32.0133 35.5669 31.9768 35.0095L30.7711 16.3206L31.2625 15.9516C31.8976 15.4728 32.4132 14.8536 32.7688 14.1422C33.1245 13.4309 33.3106 12.6469 33.3125 11.8516Z" fill="white"/>
<path d="M27.5469 11.5312C27.7168 11.5312 27.8797 11.4638 27.9999 11.3436C28.12 11.2235 28.1875 11.0605 28.1875 10.8906V1.28125C28.1875 1.11135 28.12 0.9484 27.9999 0.82826C27.8797 0.708119 27.7168 0.640625 27.5469 0.640625C27.377 0.640625 27.214 0.708119 27.0939 0.82826C26.9737 0.9484 26.9062 1.11135 26.9062 1.28125V10.8906C26.9062 11.0605 26.9737 11.2235 27.0939 11.3436C27.214 11.4638 27.377 11.5312 27.5469 11.5312Z" fill="white"/>
<path d="M30.1094 11.5312C30.2793 11.5312 30.4422 11.4638 30.5624 11.3436C30.6825 11.2235 30.75 11.0605 30.75 10.8906V1.28125C30.75 1.11135 30.6825 0.9484 30.5624 0.82826C30.4422 0.708119 30.2793 0.640625 30.1094 0.640625C29.9395 0.640625 29.7765 0.708119 29.6564 0.82826C29.5362 0.9484 29.4688 1.11135 29.4688 1.28125V10.8906C29.4688 11.0605 29.5362 11.2235 29.6564 11.3436C29.7765 11.4638 29.9395 11.5312 30.1094 11.5312Z" fill="white"/>
<path d="M19.0189 3.86236C18.6415 2.90933 17.9857 2.09215 17.137 1.51744C16.2882 0.942737 15.286 0.637186 14.261 0.640654H13.9266C12.9015 0.637186 11.8993 0.942737 11.0505 1.51744C10.2018 2.09215 9.54597 2.90933 9.16863 3.86236L9.01616 4.24225C8.13653 6.43608 7.68551 8.77817 7.68751 11.1418V11.3519C7.69099 12.4645 8.05493 13.5461 8.7248 14.4344C9.39467 15.3228 10.3344 15.9702 11.4031 16.2796L12.1379 16.4897L10.9451 35.0095C10.9086 35.5669 10.8906 36.1358 10.8906 36.7008V37.1563C10.8906 38.0058 11.2281 38.8205 11.8288 39.4212C12.4295 40.0219 13.2442 40.3594 14.0938 40.3594C14.9433 40.3594 15.758 40.0219 16.3587 39.4212C16.9594 38.8205 17.2969 38.0058 17.2969 37.1563V36.7008C17.2969 36.1358 17.2789 35.5669 17.2424 35.0095L16.0477 16.4897L16.7825 16.2796C17.8516 15.9706 18.7917 15.3233 19.4619 14.4349C20.1322 13.5465 20.4964 12.4648 20.5 11.3519V11.1418C20.502 8.77817 20.051 6.43608 19.1714 4.24225L19.0189 3.86236ZM19.2188 11.3519C19.216 12.1865 18.9428 12.9978 18.4402 13.6641C17.9376 14.3304 17.2325 14.8158 16.4308 15.0477L15.1995 15.4C15.0586 15.4398 14.9356 15.5267 14.851 15.6462C14.7663 15.7657 14.7252 15.9105 14.7344 16.0567L15.9625 35.0928C15.9971 35.622 16.0143 36.1633 16.0143 36.7008V37.1563C16.0143 37.666 15.8119 38.1548 15.4514 38.5152C15.091 38.8757 14.6022 39.0782 14.0925 39.0782C13.5828 39.0782 13.0939 38.8757 12.7335 38.5152C12.3731 38.1548 12.1706 37.666 12.1706 37.1563V36.7008C12.1706 36.1633 12.1879 35.622 12.2225 35.0922L13.4531 16.0567C13.4624 15.9107 13.4214 15.766 13.337 15.6465C13.2527 15.5271 13.13 15.4401 12.9893 15.4L11.758 15.0477C10.956 14.8161 10.2507 14.3307 9.74782 13.6644C9.24493 12.9981 8.97158 12.1867 8.96876 11.3519V11.1418C8.96658 8.94113 9.38674 6.76052 10.2064 4.71823L10.3583 4.3377C10.6413 3.62303 11.1332 3.01025 11.7697 2.57931C12.4062 2.14837 13.1579 1.91928 13.9266 1.9219H14.261C15.0297 1.91924 15.7815 2.1484 16.418 2.57947C17.0546 3.01054 17.5464 3.6235 17.8292 4.33834L17.9811 4.71823C18.8008 6.76052 19.2209 8.94113 19.2188 11.1418V11.3519Z" fill="white"/>
</svg>
