<svg width="32" height="35" viewBox="0 0 32 35" fill="none" xmlns="http://www.w3.org/2000/svg">
<path d="M30.7051 24.2738L23.9599 14.9997C23.236 14.0054 22.854 12.8333 22.854 11.6092V2.69231H23.3109C24.0677 2.69231 24.6819 2.08923 24.6819 1.34615C24.6819 0.603077 24.0677 0 23.3109 0H8.68723C7.93045 0 7.31625 0.603077 7.31625 1.34615C7.31625 2.08923 7.93045 2.69231 8.68723 2.69231H9.14422V11.6092C9.14422 12.8333 8.76217 14.0036 8.0383 14.9997L1.2931 24.2738C-0.286257 26.4438 -0.428838 29.2546 0.9202 31.6077C2.12117 33.7005 4.48839 35 7.0969 35H24.9031C27.5116 35 29.8788 33.7005 31.0798 31.6077C32.4288 29.2528 32.2863 26.4438 30.7069 24.2738H30.7051ZM28.6888 30.2867C27.9723 31.5323 26.5209 32.3077 24.9013 32.3077H7.09324C5.47183 32.3077 4.02043 31.5323 3.3057 30.2867C2.48494 28.8544 2.5672 27.1492 3.52139 25.839L10.2666 16.5649C11.325 15.111 11.8843 13.3969 11.8843 11.6092V2.69231H20.1102V11.6092C20.1102 13.3969 20.6695 15.111 21.7279 16.5649L28.4731 25.839C29.4273 27.1492 29.5096 28.8544 28.6888 30.2867Z" fill="white"/>
</svg>
