<svg width="32" height="32" viewBox="0 0 32 32" fill="none" xmlns="http://www.w3.org/2000/svg">
<path d="M30.5743 9.92758H22.0731V1.42637C22.0731 0.751673 21.5334 0.211914 20.8587 0.211914H11.143C10.4683 0.211914 9.92855 0.751673 9.92855 1.42637V9.92758H1.42735C0.752649 9.92758 0.212891 10.4673 0.212891 11.142V20.8577C0.212891 21.5324 0.752649 22.0722 1.42735 22.0722H9.92855V30.5734C9.92855 31.2481 10.4683 31.7878 11.143 31.7878H20.8587C21.5334 31.7878 22.0731 31.2481 22.0731 30.5734V22.0722H30.5743C31.249 22.0722 31.7888 21.5324 31.7888 20.8577V11.142C31.7213 10.4673 31.1816 9.92758 30.5743 9.92758ZM29.4273 19.6432H29.3599H20.8587C20.184 19.6432 19.6442 20.183 19.6442 20.8577V29.3589H12.3575V20.8577C12.3575 20.183 11.8177 19.6432 11.143 19.6432H2.64181V12.3565H11.143C11.8177 12.3565 12.3575 11.8167 12.3575 11.142V2.64083H19.7117V11.142C19.7117 11.8167 20.2514 12.3565 20.9261 12.3565H29.4273V19.6432Z" fill="white"/>
</svg>
