<svg width="21" height="21" viewBox="0 0 21 21" fill="none" xmlns="http://www.w3.org/2000/svg">
<path d="M2.09961 3.14961C2.09961 2.87113 2.21023 2.60406 2.40715 2.40715C2.60406 2.21023 2.87113 2.09961 3.14961 2.09961H5.41026C5.6588 2.09972 5.89924 2.188 6.08882 2.34873C6.27839 2.50946 6.4048 2.73223 6.44556 2.97741L7.22256 7.63416C7.25969 7.85594 7.22463 8.08378 7.12256 8.28414C7.02049 8.4845 6.85679 8.64681 6.65556 8.74716L5.03016 9.55881C5.61302 11.0032 6.48108 12.3154 7.58247 13.4167C8.68386 14.5181 9.99598 15.3862 11.4404 15.9691L12.2531 14.3437C12.3534 14.1426 12.5155 13.9791 12.7157 13.877C12.9158 13.7749 13.1434 13.7398 13.3651 13.7767L18.0218 14.5537C18.267 14.5944 18.4898 14.7208 18.6505 14.9104C18.8112 15.1 18.8995 15.3404 18.8996 15.589V17.8496C18.8996 18.1281 18.789 18.3952 18.5921 18.5921C18.3952 18.789 18.1281 18.8996 17.8496 18.8996H15.7496C8.21061 18.8996 2.09961 12.7886 2.09961 5.24961V3.14961Z" fill="white"/>
</svg>
