<svg width="33" height="35" viewBox="0 0 33 35" fill="none" xmlns="http://www.w3.org/2000/svg">
<path d="M32.5279 10.4941C32.0685 5.88924 28.7161 0.918457 24.1008 0.918457C22.6481 0.918457 21.1958 1.41277 19.7514 2.41145C17.822 3.76933 15.2108 3.79283 13.2168 2.38795C11.8047 1.41277 10.3525 0.918457 8.89974 0.918457C4.28437 0.918457 0.932056 5.88924 0.472576 10.4941C0.211575 13.1117 1.45364 15.0881 2.655 16.9998L2.92817 17.4362C4.14842 19.3967 4.54873 21.5804 4.97255 23.8925C5.08039 24.4816 5.18907 25.0741 5.31244 25.6691C5.75597 27.8117 6.93509 33.5051 10.9857 34.0615C11.0809 34.0749 11.1749 34.0816 11.2668 34.0816C13.6439 34.0816 14.3644 30.3714 15.199 26.0753C15.306 25.5239 15.4134 24.9717 15.5238 24.4321C15.643 23.8522 16.1062 23.6449 16.5003 23.6449C16.8943 23.6449 17.3575 23.8522 17.4767 24.4321C17.5871 24.9709 17.6945 25.5231 17.8015 26.0745C18.6361 30.3705 19.357 34.0808 21.7337 34.0816C21.8256 34.0816 21.9196 34.0749 22.0149 34.0615C26.0654 33.5051 27.2445 27.8117 27.6885 25.6683C27.8114 25.0741 27.9201 24.4816 28.028 23.8925C28.4518 21.5804 28.8521 19.3967 30.0719 17.4362L30.3455 16.9998C31.5469 15.0881 32.7889 13.1117 32.5279 10.4941ZM28.8903 16.0859L28.6129 16.5282C27.2202 18.7656 26.7716 21.2145 26.3373 23.5828C26.2316 24.1593 26.1254 24.7393 26.0054 25.32C25.6647 26.9641 24.6287 31.9676 21.7807 32.3595L21.7341 32.3629C20.7736 32.3629 19.9378 28.0584 19.4888 25.7463C19.3805 25.1891 19.2722 24.6318 19.1602 24.0863C18.8954 22.7948 17.8262 21.9261 16.5003 21.9261C15.1743 21.9261 14.1051 22.7948 13.8403 24.0863C13.7283 24.6318 13.62 25.1899 13.5117 25.7472C13.0628 28.0584 12.2273 32.3595 11.2211 32.3595C11.2206 32.3595 11.2202 32.3595 11.2198 32.3595C8.37186 31.9676 7.33583 26.9641 6.99552 25.3208C6.87509 24.7393 6.76892 24.1593 6.66318 23.5828C6.22888 21.2145 5.78031 18.7656 4.38718 16.5282L4.11023 16.0859C2.9672 14.2665 1.98026 12.6963 2.18293 10.6653C2.5694 6.78806 5.36069 2.63721 8.89974 2.63721C9.99662 2.63721 11.1203 3.02913 12.2596 3.81633C14.7723 5.58543 18.2085 5.59886 20.7606 3.8029C21.8802 3.02913 23.0039 2.63721 24.1008 2.63721C27.6398 2.63721 30.4311 6.78806 30.8176 10.6653C31.0203 12.6963 30.0333 14.2665 28.8903 16.0859Z" fill="white"/>
<path d="M8.66303 5.22947C6.85868 5.44767 5.02957 8.1072 4.74843 10.9203C4.70143 11.3928 5.04594 11.8141 5.51843 11.8611C5.54738 11.8636 5.57591 11.8653 5.60445 11.8653C6.04085 11.8653 6.41431 11.5346 6.45879 11.0915C6.68832 8.79285 8.15991 7.02207 8.86949 6.93647C9.34072 6.8794 9.67641 6.45139 9.61934 5.97974C9.56269 5.50809 9.14182 5.1724 8.66303 5.22947Z" fill="white"/>
</svg>
